            <svg width="100%" height="100%" viewBox="0 0 2778 2778" version="1.1" xmlns="http://www.w3.org/2000/svg" xmlns:xlink="http://www.w3.org/1999/xlink" xml:space="preserve" style="fill-rule:evenodd;clip-rule:evenodd;stroke-linejoin:round;stroke-miterlimit:1.41421;">
                <g>
                    <path class="svgSocialMedia" id="outer_circle_fb" d="M2670.69,1389.65C2670.69,2095.35 2098.61,2667.43 1392.91,2667.43C687.212,2667.43 115.134,2095.35 115.134,1389.65C115.134,683.961 687.212,111.877 1392.91,111.877C2098.61,111.877 2670.69,683.961 2670.69,1389.65" fill="#506286"/>
                </g>
                <g>
                    <path d="M2026.92,657.814L758.251,657.814C714.778,657.814 679.545,693.047 679.545,736.52L679.545,2005.19C679.545,2048.66 714.778,2083.9 758.251,2083.9L1441.26,2083.9L1441.26,1531.64L1255.41,1531.64L1255.41,1316.42L1441.26,1316.42L1441.26,1157.7C1441.26,973.503 1553.76,873.205 1718.07,873.205C1796.79,873.205 1864.43,879.062 1884.14,881.68L1884.14,1074.18L1770.18,1074.23C1680.82,1074.23 1663.51,1116.69 1663.51,1179.01L1663.51,1316.42L1876.64,1316.42L1848.89,1531.64L1663.51,1531.64L1663.51,2083.9L2026.92,2083.9C2070.39,2083.9 2105.62,2048.66 2105.62,2005.19L2105.62,736.52C2105.62,693.047 2070.39,657.814 2026.92,657.814" style="fill:#fff;fill-rule:nonzero;"/>
                </g>
            </svg>