<svg width="100%" height="100%" viewBox="0 0 500 500" version="1.1" xmlns="http://www.w3.org/2000/svg" xmlns:xlink="http://www.w3.org/1999/xlink" xml:space="preserve" style="fill-rule:evenodd;clip-rule:evenodd;stroke-linejoin:round;stroke-miterlimit:1.41421;">
                <g>
                    <path id="outer_circle_li" class="svgSocialMedia" d="M480.724,250.138C480.724,377.163 377.749,480.138 250.724,480.138C123.698,480.138 20.724,377.163 20.724,250.138C20.724,123.113 123.698,20.138 250.724,20.138C377.749,20.138 480.724,123.113 480.724,250.138" fill="#488EAC"/>
                </g>
                <rect x="150.478" y="201.652" width="28.482" height="154.18" style="fill:#fff;"/>
                <circle  id="letter_i_dot" cx="164.396" cy="158.224" r="17.751" style="fill:#fff;"/>
                <path class="linked_in_logo"  id="letter_n" d="M223.866,201.617L248.74,201.617C248.74,201.617 250.288,227.091 250.295,227.129C250.302,227.167 250.932,227.129 250.932,227.129C250.932,227.129 263.354,199.552 299.245,198.209C332.299,196.972 356.222,219.678 356.361,263.567C356.39,272.854 356.361,355.818 356.361,355.818L328.331,355.818L328.331,263.682C328.331,263.682 329.268,222.907 293.824,221.388C268.473,220.302 253.18,245.013 253.151,262.802C253.131,275.672 253.151,355.823 253.151,355.823L225.118,355.823L225.118,231.788C225.118,231.788 223.953,202.175 223.866,201.617" style="fill:#fff;"/>
            </svg>